<?xml version="1.0" encoding="UTF-8"?>
<svg version="1.1" xmlns="http://www.w3.org/2000/svg" width="360" height="360">
<path d="M0 0 C118.8 0 237.6 0 360 0 C360 118.8 360 237.6 360 360 C241.2 360 122.4 360 0 360 C0 241.2 0 122.4 0 0 Z " fill="#FDFDFD" transform="translate(0,0)"/>
<path d="M0 0 C2.4375 1.35546875 2.4375 1.35546875 5 3.1875 C18.81336073 12.1652721 31.68818016 13.95640207 48 12 C55.28926876 10.45312374 61.63578292 7.33029318 67.375 2.5625 C70.179477 0.25471223 71.78858586 -0.39413089 75.4375 -0.125 C80.33003847 0.84686248 84.58136776 2.73237348 89 5 C89.88026855 5.44037598 89.88026855 5.44037598 90.77832031 5.88964844 C92.77610402 6.89204517 94.76407259 7.91183029 96.75 8.9375 C97.38824707 9.26113525 98.02649414 9.58477051 98.68408203 9.91821289 C102.820445 12.10349194 105.76978421 14.55480398 109 18 C110.28337558 19.05186469 111.5745338 20.09434007 112.875 21.125 C120.97063712 28.16468446 126.46356848 37.94328117 127.27734375 48.6484375 C127.51618034 58.37386326 126.65089435 64.98771502 119.96875 72.30859375 C98.70661385 90.57546866 61.15946371 91.22334523 34.5625 91.25 C33.37320389 91.25200912 33.37320389 91.25200912 32.15988159 91.25405884 C14.90949861 91.24775507 -1.2525942 89.20487233 -18 85 C-19.60326145 84.66233963 -21.20736361 84.32863198 -22.8125 84 C-32.79788536 81.75690619 -45.13279603 77.68904969 -51 69 C-51 68.34 -51 67.68 -51 67 C-51.66 67 -52.32 67 -53 67 C-56.21941608 56.95542185 -56.48166193 46.38667594 -52.32421875 36.5546875 C-48.55317923 29.27958471 -42.00913393 17.91914748 -33.76171875 15.28515625 C-33.18035156 15.19105469 -32.59898438 15.09695312 -32 15 C-32 14.34 -32 13.68 -32 13 C-8.5947773 -1.14138643 -8.5947773 -1.14138643 0 0 Z " fill="#030709" transform="translate(144,176)"/>
<path d="M0 0 C0 0.66 0 1.32 0 2 C0.70125 2.226875 1.4025 2.45375 2.125 2.6875 C8.50787431 5.60142088 11.9980721 9.87844495 15.25 15.875 C15.75660156 16.75478516 15.75660156 16.75478516 16.2734375 17.65234375 C21.97441782 27.86472976 22.50791674 38.44513247 19.5 49.625 C15.62556966 60.92087437 7.59067611 70.60018267 -2.9375 76.3125 C-15.85338358 82.14467224 -28.98744365 80.90185557 -42 76 C-42.66 75.67 -43.32 75.34 -44 75 C-44 74.34 -44 73.68 -44 73 C-44.59167969 72.89429688 -45.18335938 72.78859375 -45.79296875 72.6796875 C-54.11881362 70.115622 -59.02760199 59.13242166 -63.07373047 52.14599609 C-64.82543605 48.08761654 -64.32689512 43.66846385 -64.3125 39.3125 C-64.32861328 38.35666016 -64.34472656 37.40082031 -64.36132812 36.41601562 C-64.36936859 24.62064726 -60.38439543 16.09286851 -52.625 7.3125 C-51.325625 6.1678125 -51.325625 6.1678125 -50 5 C-49.44957031 4.50757812 -48.89914063 4.01515625 -48.33203125 3.5078125 C-34.62393461 -7.85436245 -15.52682752 -7.76341376 0 0 Z " fill="#030709" transform="translate(202,98)"/>
<path d="M0 0 C6.30541668 3.7668723 11.54107854 5.05915548 18.76953125 5.0546875 C19.88557739 5.05782959 19.88557739 5.05782959 21.02416992 5.06103516 C28.04573645 4.85362408 34.04107443 2.79721052 39.83203125 -1.1953125 C43.19504747 -3.5078125 43.19504747 -3.5078125 46.51953125 -3.5078125 C46.77347656 -2.83234375 47.02742188 -2.156875 47.2890625 -1.4609375 C47.63324219 -0.56890625 47.97742188 0.323125 48.33203125 1.2421875 C48.66847656 2.12390625 49.00492187 3.005625 49.3515625 3.9140625 C50.41421715 6.53763425 50.41421715 6.53763425 52.21875 8.6328125 C52.86263672 9.55320313 52.86263672 9.55320313 53.51953125 10.4921875 C53.18953125 11.4821875 52.85953125 12.4721875 52.51953125 13.4921875 C50.12371298 14.4866781 47.79290528 15.32077256 45.33203125 16.1171875 C28.37286349 22.08099694 12.59705427 33.74606343 3.51953125 49.4921875 C3.18953125 50.4821875 2.85953125 51.4721875 2.51953125 52.4921875 C-3.01214765 52.69733586 -7.90948815 51.9847925 -13.29296875 50.7421875 C-14.08541992 50.56026855 -14.87787109 50.37834961 -15.69433594 50.19091797 C-24.87196507 48.012124 -32.29245481 45.94953763 -38.48046875 38.4921875 C-40.5936851 32.15253845 -40.35068949 24.60115946 -37.63671875 18.45703125 C-31.30349797 7.69483513 -20.94598704 1.72904068 -9.76953125 -3.07421875 C-5.8557827 -3.8155602 -3.28559965 -1.99723065 0 0 Z " fill="#06090B" transform="translate(81.48046875,153.5078125)"/>
<path d="M0 0 C11.85230924 4.82871858 23.08327441 11.19935876 28.8125 23.125 C30.62508469 28.77461461 31.084449 35.64152157 29.03515625 41.25390625 C22.76461239 50.20896409 6.95000699 52.60252231 -3.1015625 54.6796875 C-6.17717508 55.12351008 -9.08478828 55.20885707 -12.1875 55.125 C-12.55875 54.3 -12.93 53.475 -13.3125 52.625 C-23.32866077 33.92816657 -42.37870903 22.12461689 -62.1875 16.125 C-62.1875 11.95774503 -61.3206251 10.34625904 -59.2109375 6.875 C-57.94618738 4.71237385 -57.04247563 2.47618297 -56.1875 0.125 C-51.812379 0.62217284 -49.6275351 1.49438492 -46.1875 4.125 C-40.38175876 6.67927262 -35.63074599 7.6464544 -29.3125 7.5625 C-28.52456055 7.55637695 -27.73662109 7.55025391 -26.92480469 7.54394531 C-19.16847601 7.33621504 -13.24357382 5.55738529 -7.125 0.6875 C-3.81941155 -1.07079173 -3.40364164 -1.02830869 0 0 Z " fill="#05080B" transform="translate(288.1875,150.875)"/>
<path d="M0 0 C5.80271621 4.1999693 11.20943407 8.84943933 13 16 C14.33264724 25.75309089 12.93119098 33.08722119 7 41 C1.70354113 46.99153222 -5.74737266 49.54436136 -13.5 50.375 C-20.10685099 50.26364858 -26.79191583 47.51789873 -31.9609375 43.4609375 C-37.33495956 37.70500524 -40.15454087 30.30635315 -40.5625 22.5 C-40.23517943 14.77523455 -36.83658178 8.69578442 -31.6875 3.0625 C-23.34297147 -4.52994656 -9.77121281 -5.878456 0 0 Z " fill="#05090B" transform="translate(114,98)"/>
<path d="M0 0 C6.01654966 4.83939864 10.25621429 10.7627657 11.125 18.5546875 C11.51676401 26.41445303 9.55691176 33.14921946 4.4375 39.1875 C3.591875 39.88875 2.74625 40.59 1.875 41.3125 C0.7303125 42.364375 0.7303125 42.364375 -0.4375 43.4375 C-6.90585576 47.95030634 -13.30715975 49.19918795 -21.125 48.3125 C-28.63780379 46.78517176 -34.24965977 42.21126641 -38.73828125 36.125 C-42.80112566 29.16666365 -43.14110786 22.20615269 -42.125 14.3125 C-40.4941866 8.76946936 -37.40862383 5.1567778 -33.125 1.3125 C-32.41537109 0.55453125 -32.41537109 0.55453125 -31.69140625 -0.21875 C-22.81815567 -8.5388054 -9.40612438 -5.07930716 0 0 Z " fill="#06090B" transform="translate(275.125,99.6875)"/>
<path d="M0 0 C0 0.99 0 1.98 0 3 C-0.969375 2.814375 -1.93875 2.62875 -2.9375 2.4375 C-3.948125 2.293125 -4.95875 2.14875 -6 2 C-6.33 2.33 -6.66 2.66 -7 3 C-5.68 3.33 -4.36 3.66 -3 4 C-5.66666667 5.33333333 -8.33333333 6.66666667 -11 8 C-11 7.34 -11 6.68 -11 6 C-11.66 5.67 -12.32 5.34 -13 5 C-12.34 5 -11.68 5 -11 5 C-11.33 4.34 -11.66 3.68 -12 3 C-13.32 3.99 -14.64 4.98 -16 6 C-16.33 5.01 -16.66 4.02 -17 3 C-15.11414655 2.10369326 -13.21578923 1.23366125 -11.3125 0.375 C-10.25675781 -0.11226562 -9.20101562 -0.59953125 -8.11328125 -1.1015625 C-4.52064907 -2.13833214 -3.2217055 -1.75729391 0 0 Z " fill="#151719" transform="translate(79,152)"/>
<path d="M0 0 C0.33 0 0.66 0 1 0 C1 2.31 1 4.62 1 7 C1.66 7 2.32 7 3 7 C3.12117188 7.68707031 3.24234375 8.37414062 3.3671875 9.08203125 C3.61855469 10.43361328 3.61855469 10.43361328 3.875 11.8125 C4.03742188 12.70582031 4.19984375 13.59914062 4.3671875 14.51953125 C4.91188449 17.22727846 4.91188449 17.22727846 7 20 C6.01 21.32 5.02 22.64 4 24 C4 23.34 4 22.68 4 22 C3.34 22 2.68 22 2 22 C0.2958322 16.84053135 -0.22225605 12.5574667 -0.125 7.0625 C-0.11597656 6.37865234 -0.10695313 5.69480469 -0.09765625 4.99023438 C-0.07438958 3.32666713 -0.03853167 1.66328369 0 0 Z " fill="#18191B" transform="translate(89,221)"/>
<path d="M0 0 C0.66 2.31 1.32 4.62 2 7 C0.02 7 -1.96 7 -4 7 C-4 6.34 -4 5.68 -4 5 C-4.99 5.66 -5.98 6.32 -7 7 C-7 6.34 -7 5.68 -7 5 C-8.32 5.33 -9.64 5.66 -11 6 C-8.98932585 1.9786517 -4.28943425 0 0 0 Z " fill="#222427" transform="translate(128,150)"/>
<path d="M0 0 C3.58091264 3.58091264 3.9532033 8.05002694 4.1953125 12.96484375 C4.16050781 14.93130859 4.16050781 14.93130859 4.125 16.9375 C4.11146484 17.96327148 4.11146484 17.96327148 4.09765625 19.00976562 C4.07438958 20.67333287 4.03853167 22.33671631 4 24 C3.67 24 3.34 24 3 24 C2.92652344 22.95199219 2.92652344 22.95199219 2.8515625 21.8828125 C2.77679688 20.97273438 2.70203125 20.06265625 2.625 19.125 C2.55539062 18.22007812 2.48578125 17.31515625 2.4140625 16.3828125 C2.20431868 13.82058097 2.20431868 13.82058097 0 12 C-0.44921875 9.94140625 -0.44921875 9.94140625 -0.6875 7.5625 C-0.77386719 6.78003906 -0.86023438 5.99757812 -0.94921875 5.19140625 C-1 3 -1 3 0 0 Z " fill="#1D1F1E" transform="translate(267,212)"/>
<path d="M0 0 C4.87362847 0.45336079 7.39042389 1.7089159 11 5 C10.67 5.66 10.34 6.32 10 7 C9.34 7 8.68 7 8 7 C8 6.34 8 5.68 8 5 C4.80097361 4.91113816 2.07322544 5.08941469 -1 6 C-1.33 5.01 -1.66 4.02 -2 3 C-1.34 3 -0.68 3 0 3 C0 2.01 0 1.02 0 0 Z " fill="#0E1113" transform="translate(106,96)"/>
<path d="M0 0 C3.12288864 2.55509071 4.10080633 5.1034941 5 9 C4.625 12.875 4.625 12.875 4 16 C3.67 15.34 3.34 14.68 3 14 C2.34 13.67 1.68 13.34 1 13 C1.020625 11.96875 1.04125 10.9375 1.0625 9.875 C1.00723339 6.44847031 0.65449285 3.35427586 0 0 Z " fill="#1C1D1D" transform="translate(313,169)"/>
<path d="M0 0 C0.66 0.66 1.32 1.32 2 2 C1.625 5.125 1.625 5.125 1 8 C1.66 8.33 2.32 8.66 3 9 C2.67 9.66 2.34 10.32 2 11 C0.02 10.34 -1.96 9.68 -4 9 C-2.80100302 5.9168649 -1.52299523 2.93720508 0 0 Z M2 1 C4 2 4 2 4 2 Z " fill="#17181A" transform="translate(229,157)"/>
<path d="M0 0 C4.39044607 4.39044607 4.125 10.05679858 4.125 15.9375 C4.09310129 17.95851112 4.05469084 19.9794772 4 22 C3.67 22 3.34 22 3 22 C2.67 18.37 2.34 14.74 2 11 C1.34 11 0.68 11 0 11 C-1.125 3.375 -1.125 3.375 0 0 Z " fill="#404242" transform="translate(219,119)"/>
<path d="M0 0 C-3.12621626 3.39417765 -5.56541027 5.6062718 -10 7 C-10.66 6.34 -11.32 5.68 -12 5 C-8.44416617 1.04907352 -5.38741645 -1.79580548 0 0 Z " fill="#1D201F" transform="translate(94,97)"/>
<path d="M0 0 C0 2 0 2 -1.0625 3.5 C-3.79828544 5.61802743 -6.67445262 6.1842997 -10 7 C-10.66 6.34 -11.32 5.68 -12 5 C-10.75747321 4.15556432 -9.5056114 3.3248542 -8.25 2.5 C-7.55390625 2.0359375 -6.8578125 1.571875 -6.140625 1.09375 C-4 0 -4 0 0 0 Z " fill="#1D1E21" transform="translate(126,183)"/>
<path d="M0 0 C0.99 0.33 1.98 0.66 3 1 C3.49230769 8.38461538 3.49230769 8.38461538 1 11.5 C0.34 11.995 -0.32 12.49 -1 13 C-1.66 12.01 -2.32 11.02 -3 10 C-2.67 9.01 -2.34 8.02 -2 7 C-1.32811503 4.66816393 -0.66084583 2.33498858 0 0 Z " fill="#020304" transform="translate(123,117)"/>
<path d="M0 0 C0 3 0 3 -2 5.1875 C-2.66 5.785625 -3.32 6.38375 -4 7 C-3.01 7.99 -2.02 8.98 -1 10 C-1.99 10.495 -1.99 10.495 -3 11 C-3.66 10.67 -4.32 10.34 -5 10 C-5 10.66 -5 11.32 -5 12 C-6.32 12 -7.64 12 -9 12 C-7.54718935 6.67302761 -3.91888622 3.63597198 0 0 Z " fill="#27282A" transform="translate(105,195)"/>
<path d="M0 0 C0 3.54091616 -0.73837086 4.39042792 -3 7 C-3.99 7.495 -3.99 7.495 -5 8 C-5.66 7.34 -6.32 6.68 -7 6 C-7.99 6.495 -7.99 6.495 -9 7 C-9.99 6.34 -10.98 5.68 -12 5 C-8.04 3.35 -4.08 1.7 0 0 Z " fill="#E0E0E0" transform="translate(128,168)"/>
<path d="M0 0 C1.125 2.0625 1.125 2.0625 2 4 C0.37536158 4.05395478 -1.24978541 4.09277195 -2.875 4.125 C-3.77992188 4.14820313 -4.68484375 4.17140625 -5.6171875 4.1953125 C-8 4 -8 4 -10 2 C-8.71211992 1.46987262 -7.41953322 0.9511671 -6.125 0.4375 C-5.40570313 0.14746094 -4.68640625 -0.14257812 -3.9453125 -0.44140625 C-2 -1 -2 -1 0 0 Z " fill="#26272A" transform="translate(202,186)"/>
<path d="M0 0 C1.32 0.66 2.64 1.32 4 2 C3.01 2.309375 3.01 2.309375 2 2.625 C-1.49475582 4.22676308 -4.16216618 6.34199506 -7.1328125 8.7578125 C-9 10 -9 10 -12 10 C-10.56458334 8.70601853 -9.12658648 7.41489889 -7.6875 6.125 C-6.88699219 5.40570313 -6.08648437 4.68640625 -5.26171875 3.9453125 C-3 2 -3 2 0 0 Z " fill="#DFE0E2" transform="translate(108,178)"/>
<path d="M0 0 C-3.58231946 1.86595541 -7.05630491 3.06785389 -11 4 C-11.99 3.67 -12.98 3.34 -14 3 C-9.47669209 -1.81513423 -6.01431461 -1.20548354 0 0 Z " fill="#1B1E1F" transform="translate(224,177)"/>
<path d="M0 0 C2.9375 0.375 2.9375 0.375 6 1 C6.33 1.66 6.66 2.32 7 3 C5.68 3.33 4.36 3.66 3 4 C3.33 4.66 3.66 5.32 4 6 C2.02 6 0.04 6 -2 6 C-1.34 4.02 -0.68 2.04 0 0 Z " fill="#121417" transform="translate(232,151)"/>
<path d="M0 0 C1.03125 0.4125 2.0625 0.825 3.125 1.25 C0.44412713 2.85852372 -1.39540267 3.32056307 -4.5625 3.75 C-6.2021875 3.9975 -6.2021875 3.9975 -7.875 4.25 C-8.205 4.91 -8.535 5.57 -8.875 6.25 C-9.205 5.26 -9.535 4.27 -9.875 3.25 C-4.82884615 -0.93461538 -4.82884615 -0.93461538 0 0 Z " fill="#151618" transform="translate(287.875,150.75)"/>
<path d="M0 0 C-0.99 1.485 -0.99 1.485 -2 3 C-1.67 3.99 -1.34 4.98 -1 6 C-2.65 5.67 -4.3 5.34 -6 5 C-6 4.34 -6 3.68 -6 3 C-7.32 3.33 -8.64 3.66 -10 4 C-7.39928297 0.98864344 -3.94054294 -1.97027147 0 0 Z " fill="#1F2225" transform="translate(167,96)"/>
<path d="M0 0 C0 1.32 0 2.64 0 4 C-1.45922693 3.88590407 -2.91740598 3.75834456 -4.375 3.625 C-5.59316406 3.52058594 -5.59316406 3.52058594 -6.8359375 3.4140625 C-9 3 -9 3 -11 1 C-3.375 0 -3.375 0 0 0 Z " fill="#212225" transform="translate(137,259)"/>
<path d="M0 0 C1.65 0.33 3.3 0.66 5 1 C5.33 1.99 5.66 2.98 6 4 C5.34 4.66 4.68 5.32 4 6 C3.01 5.67 2.02 5.34 1 5 C0.01 5.495 0.01 5.495 -1 6 C-1.33 4.68 -1.66 3.36 -2 2 C-1.34 2 -0.68 2 0 2 C0 1.34 0 0.68 0 0 Z " fill="#0B0D10" transform="translate(211,153)"/>
<path d="M0 0 C0.66 0.99 1.32 1.98 2 3 C-0.25388088 6.32150867 -2.63670244 8.78514551 -6 11 C-8.3125 10.75 -8.3125 10.75 -10 10 C-9.0925 9.46375 -8.185 8.9275 -7.25 8.375 C-3.79561944 6.09936542 -2.08948315 3.53604841 0 0 Z " fill="#C9CACB" transform="translate(268,241)"/>
<path d="M0 0 C0.99 0 1.98 0 3 0 C2.6875 2.875 2.6875 2.875 2 6 C1.01 6.66 0.02 7.32 -1 8 C-2.2077558 4.37673261 -1.54311128 3.35853631 0 0 Z " fill="#151619" transform="translate(315,186)"/>
<path d="M0 0 C0.99 0 1.98 0 3 0 C3.33 1.98 3.66 3.96 4 6 C3.34 6 2.68 6 2 6 C1.67 7.65 1.34 9.3 1 11 C0.67 11 0.34 11 0 11 C0 7.37 0 3.74 0 0 Z " fill="#111312" transform="translate(42,178)"/>
<path d="M0 0 C2.31 0.66 4.62 1.32 7 2 C7 2.99 7 3.98 7 5 C5.02 5.33 3.04 5.66 1 6 C0.67 4.02 0.34 2.04 0 0 Z " fill="#27282A" transform="translate(225,178)"/>
<path d="M0 0 C2.125 0.375 2.125 0.375 4 1 C4 1.66 4 2.32 4 3 C4.99 3 5.98 3 7 3 C7.33 4.32 7.66 5.64 8 7 C6.02 6.34 4.04 5.68 2 5 C2 4.34 2 3.68 2 3 C0.68 2.67 -0.64 2.34 -2 2 C-1.34 1.34 -0.68 0.68 0 0 Z " fill="#27292B" transform="translate(156,168)"/>
<path d="M0 0 C3.68965517 3.68965517 3.68965517 3.68965517 4 7 C3.01 8.485 3.01 8.485 2 10 C1.34 10 0.68 10 0 10 C0 6.7 0 3.4 0 0 Z " fill="#181A1C" transform="translate(121,105)"/>
<path d="M0 0 C6.75 2.75 6.75 2.75 9 5 C8.67 5.66 8.34 6.32 8 7 C5.33333333 5.66666667 2.66666667 4.33333333 0 3 C0 2.01 0 1.02 0 0 Z " fill="#111415" transform="translate(267,96)"/>
<path d="M0 0 C0.33 0 0.66 0 1 0 C1.99 3.96 2.98 7.92 4 12 C3.01 12.495 3.01 12.495 2 13 C-1.62870159 4.738041 -1.62870159 4.738041 0 0 Z " fill="#111312" transform="translate(76,123)"/>
<path d="M0 0 C1.98 0.66 3.96 1.32 6 2 C5.67 2.99 5.34 3.98 5 5 C2.9375 5.6875 2.9375 5.6875 1 6 C0.34 5.01 -0.32 4.02 -1 3 C-0.67 2.01 -0.34 1.02 0 0 Z " fill="#121214" transform="translate(153,183)"/>
<path d="M0 0 C-2.97 2.475 -2.97 2.475 -6 5 C-6.66 4.67 -7.32 4.34 -8 4 C-7.6875 2.0625 -7.6875 2.0625 -7 0 C-3.86650268 -1.04449911 -3.01031744 -0.93423645 0 0 Z " fill="#181A1A" transform="translate(206,169)"/>
<path d="M0 0 C2.97 0.99 5.94 1.98 9 3 C8.01 3.495 8.01 3.495 7 4 C7 4.66 7 5.32 7 6 C4.0625 5.25 4.0625 5.25 1 4 C0.67 2.68 0.34 1.36 0 0 Z " fill="#D6D8D7" transform="translate(87,144)"/>
<path d="M0 0 C0.66 0.33 1.32 0.66 2 1 C-0.97 3.97 -3.94 6.94 -7 10 C-7.66 9.67 -8.32 9.34 -9 9 C-6.31941902 5.42589203 -3.57410797 2.68058098 0 0 Z " fill="#2D2E30" transform="translate(155,100)"/>
<path d="M0 0 C0 0.99 0 1.98 0 3 C-1.98 3.33 -3.96 3.66 -6 4 C-6 3.01 -6 2.02 -6 1 C-6.66 0.67 -7.32 0.34 -8 0 C-5.13822943 -1.43088528 -3.06624227 -0.59991697 0 0 Z " fill="#1A1A1E" transform="translate(230,259)"/>
<path d="M0 0 C0.99 0.99 1.98 1.98 3 3 C1.92598892 5.91517292 1.22189824 7.77810176 -1 10 C-1.33 8.68 -1.66 7.36 -2 6 C-1.34 6 -0.68 6 0 6 C0 4.02 0 2.04 0 0 Z " fill="#141617" transform="translate(267,235)"/>
<path d="M0 0 C0.66 0.33 1.32 0.66 2 1 C2 2.65 2 4.3 2 6 C-0.31 6 -2.62 6 -5 6 C-4.01 5.67 -3.02 5.34 -2 5 C-0.78130071 2.49552484 -0.78130071 2.49552484 0 0 Z " fill="#252728" transform="translate(82,200)"/>
<path d="M0 0 C1.9375 0.375 1.9375 0.375 4 1 C4.33 1.66 4.66 2.32 5 3 C4.0625 5.125 4.0625 5.125 3 7 C2.01 6.67 1.02 6.34 0 6 C0 4.02 0 2.04 0 0 Z " fill="#0A0E0E" transform="translate(248,192)"/>
<path d="M0 0 C2.625 0.9375 2.625 0.9375 5 2 C4.01 3.32 3.02 4.64 2 6 C1.01 5.67 0.02 5.34 -1 5 C-1.6875 2.9375 -1.6875 2.9375 -2 1 C-1.34 0.67 -0.68 0.34 0 0 Z " fill="#111214" transform="translate(145,178)"/>
<path d="M0 0 C1.32 0.99 2.64 1.98 4 3 C-0.75 7 -0.75 7 -3 7 C-2.38722388 4.03824877 -1.74627478 2.61941217 0 0 Z " fill="#171A1C" transform="translate(103,177)"/>
<path d="M0 0 C-1.65 0.66 -3.3 1.32 -5 2 C-5 2.66 -5 3.32 -5 4 C-7.31 3.67 -9.62 3.34 -12 3 C-12 2.67 -12 2.34 -12 2 C-10.37787941 1.47026689 -8.75218416 0.95146893 -7.125 0.4375 C-6.22007812 0.14746094 -5.31515625 -0.14257812 -4.3828125 -0.44140625 C-2 -1 -2 -1 0 0 Z " fill="#D8D7DA" transform="translate(242,259)"/>
<path d="M0 0 C0.99 0.33 1.98 0.66 3 1 C2.67 1.99 2.34 2.98 2 4 C3.32 4.33 4.64 4.66 6 5 C5.01 5.495 5.01 5.495 4 6 C1.64018187 5.06421005 -0.69631264 4.06652192 -3 3 C-2.01 2.01 -1.02 1.02 0 0 Z " fill="#333534" transform="translate(105,250)"/>
<path d="M0 0 C1.32 0.66 2.64 1.32 4 2 C4 2.99 4 3.98 4 5 C2.1875 5.6875 2.1875 5.6875 0 6 C-1.75 4.5625 -1.75 4.5625 -3 3 C-1.68 2.67 -0.36 2.34 1 2 C0.67 1.34 0.34 0.68 0 0 Z " fill="#151616" transform="translate(260,179)"/>
<path d="M0 0 C1.5625 1.1875 1.5625 1.1875 3 3 C2.6875 5.6875 2.6875 5.6875 2 8 C0 6.1875 0 6.1875 -2 4 C-2 3.01 -2 2.02 -2 1 C-1.34 0.67 -0.68 0.34 0 0 Z " fill="#171A1B" transform="translate(281,107)"/>
<path d="M0 0 C2.31 0.33 4.62 0.66 7 1 C6.01 2.485 6.01 2.485 5 4 C4.01 4 3.02 4 2 4 C1.34 2.68 0.68 1.36 0 0 Z " fill="#F3F4F4" transform="translate(155,173)"/>
<path d="M0 0 C0.66 0.33 1.32 0.66 2 1 C2 1.99 2 2.98 2 4 C0.02 4.99 -1.96 5.98 -4 7 C-3.43628586 3.73045798 -2.50037734 2.17424117 0 0 Z " fill="#EDEDEE" transform="translate(125,146)"/>
<path d="M0 0 C1.65 1.65 3.3 3.3 5 5 C4.01 5.33 3.02 5.66 2 6 C0.68 4.35 -0.64 2.7 -2 1 C-1.34 0.67 -0.68 0.34 0 0 Z " fill="#151518" transform="translate(264,185)"/>
<path d="M0 0 C0.33 0.99 0.66 1.98 1 3 C-1.64 3 -4.28 3 -7 3 C-7 2.01 -7 1.02 -7 0 C-4.3333581 -1.33332095 -2.83319697 -0.67102033 0 0 Z " fill="#0F1314" transform="translate(255,97)"/>
<path d="M0 0 C0.33 0.66 0.66 1.32 1 2 C2.65 2 4.3 2 6 2 C5.67 2.99 5.34 3.98 5 5 C3.02 4.34 1.04 3.68 -1 3 C-0.67 2.01 -0.34 1.02 0 0 Z " fill="#353637" transform="translate(226,163)"/>
<path d="M0 0 C0.99 0.33 1.98 0.66 3 1 C3 1.99 3 2.98 3 4 C2.01 4.495 2.01 4.495 1 5 C0.01 4.01 -0.98 3.02 -2 2 C-1.34 1.34 -0.68 0.68 0 0 Z " fill="#DCDDDF" transform="translate(241,151)"/>
<path d="M0 0 C0.33 0 0.66 0 1 0 C1 2.97 1 5.94 1 9 C0.01 8.67 -0.98 8.34 -2 8 C-1.125 2.25 -1.125 2.25 0 0 Z " fill="#292B2A" transform="translate(141,117)"/>
</svg>
